<svg width="1920" height="960" viewBox="0 0 1920 960" fill="none" xmlns="http://www.w3.org/2000/svg">
<g clip-path="url(#clip0_7_4)">
<rect width="1920" height="960" fill="white"/>
<rect width="1920" height="960" fill="url(#paint0_linear_7_4)"/>
<path d="M960 0H1920V990.968H960V0Z" fill="url(#paint1_linear_7_4)"/>
<path d="M960 0H1920V990.968H960V0Z" fill="url(#paint2_linear_7_4)"/>
<path d="M0 0H960V960H0V0Z" fill="url(#paint3_linear_7_4)"/>
<g clip-path="url(#clip1_7_4)">
<g filter="url(#filter0_i_7_4)">
<rect x="1264" y="312" width="375" height="130" rx="65" fill="url(#paint4_linear_7_4)"/>
</g>
<g opacity="0.35">
<path d="M1434.07 288.917C1432.87 287.964 1431.6 287.742 1431.06 287.654C1428 287.153 1426.42 289.098 1425.17 288.237C1424.24 287.593 1425 286.437 1424.07 284.334C1423.96 284.102 1422.73 281.427 1419.87 280.351C1417.51 279.461 1415.31 280.149 1414.42 280.426C1411.06 281.476 1410.04 283.749 1408.87 283.237C1407.83 282.784 1408.36 280.913 1407.3 277.853C1407.08 277.223 1406.19 274.811 1404.3 272.893C1403.15 271.725 1401.84 270.951 1400.57 270.441C1395.57 272.694 1390.86 275.552 1386.45 278.832C1381.58 282.459 1375.83 280.371 1370.19 280.912C1366.3 281.284 1363 283.298 1359.96 285.622C1358.56 286.692 1357.84 287.801 1356.72 289.113C1356.44 289.442 1355.96 290.104 1355.46 290.233C1354.34 290.527 1352.57 289.659 1351.18 288.946C1351.5 289.926 1352.1 290.43 1351.95 290.606C1351.78 290.804 1350.98 290.219 1349.85 289.815C1348.49 289.33 1347.33 289.356 1346.61 289.359C1346.06 289.362 1343.81 289.42 1341.6 290.756C1341.55 290.784 1341.48 290.827 1341.39 290.883C1340.95 291.163 1337 293.758 1337.02 297.854C1337.03 300.236 1338.38 302.494 1340.11 303.717C1342.1 305.123 1343.26 304.218 1347.21 305.795C1349.56 306.732 1349.29 307.105 1351.45 307.912C1354.63 309.099 1357.39 309.106 1359.01 309.094C1361.04 309.08 1363.39 309.065 1366.15 308.033C1369.21 306.888 1371 305.155 1373.32 305.863C1373.93 306.05 1373.96 306.237 1374.93 306.529C1375.43 306.682 1377.15 307.162 1379.4 306.99C1383.14 306.706 1384 304.957 1386.54 304.711C1389.48 304.427 1390.99 306.869 1393.79 308.02C1403.65 312.073 1417.63 309.817 1421.68 303.197C1422.47 301.913 1422.61 300.907 1423.91 299.923C1427.06 297.538 1430.64 300.07 1433.95 297.651C1434.26 297.42 1436.19 295.969 1436.36 293.639C1436.56 290.949 1434.29 289.086 1434.07 288.917Z" fill="#F2F7F8"/>
<path d="M1431.95 290.652C1429.43 289.209 1426.6 290.124 1425.72 290.409C1423 291.29 1423.12 292.558 1421.02 292.858C1418.59 293.206 1418.05 291.566 1415.56 291.882C1413.28 292.172 1413.14 293.661 1410.72 294.004C1409.05 294.243 1408.8 293.571 1405.79 293.038C1404.54 292.817 1401.8 292.354 1398.65 292.943C1397.38 293.179 1395.49 293.689 1393.35 294.924C1392.63 296.064 1391.04 298.684 1387.84 299.875C1385.4 300.782 1382.57 301.027 1380.01 300.857C1378.2 300.738 1370.54 299.76 1369.74 296.818C1367.32 298.75 1364.8 300.734 1361.73 301.41C1360.21 301.746 1356.95 302.423 1353.62 300.731C1352.04 299.924 1350.97 298.848 1350.35 298.093C1349.47 298.515 1347.86 299.116 1345.87 298.907C1341.14 298.406 1338.84 293.755 1338.66 293.39C1338.15 294.113 1337.19 295.678 1337.02 297.854C1336.98 298.423 1336.74 302.34 1339.88 305.029C1342.89 307.619 1346.57 306.952 1347.02 306.861C1348.13 307.838 1352.73 311.669 1359.66 311.624C1367.49 311.575 1372.39 306.626 1373.25 305.719C1373.64 306.116 1376.27 308.733 1380.37 308.509C1384.28 308.296 1386.57 305.655 1386.94 305.209C1388.44 306.129 1390.76 307.398 1393.75 308.462C1396.81 309.549 1408.15 313.577 1418.48 307.96C1420.33 306.954 1423.17 305.082 1425.92 301.64C1429.79 302.971 1433.61 301.491 1434.83 298.878C1435.75 296.923 1435.16 294.471 1434.19 292.884C1433.92 292.456 1433.26 291.398 1431.95 290.652Z" fill="#CEEAF0"/>
</g>
<g filter="url(#filter1_f_7_4)">
<circle cx="1574" cy="377" r="52" fill="white"/>
</g>
<path d="M1574 429C1602.72 429 1626 405.719 1626 377C1626 348.281 1602.72 325 1574 325C1545.28 325 1522 348.281 1522 377C1522 405.719 1545.28 429 1574 429Z" fill="#EFEAD7"/>
<g opacity="0.54">
<path d="M1574 325C1570.7 325 1567.46 325.312 1564.33 325.901C1588.43 330.434 1606.66 351.586 1606.66 377C1606.66 402.413 1588.43 423.565 1564.33 428.098C1567.46 428.688 1570.7 428.999 1574 428.999C1602.72 428.999 1626 405.718 1626 377C1626 348.281 1602.72 325 1574 325Z" fill="#E5E0CF"/>
</g>
<mask id="mask0_7_4" style="mask-type:luminance" maskUnits="userSpaceOnUse" x="1522" y="325" width="105" height="104">
<path d="M1574 429C1602.72 429 1626 405.719 1626 377C1626 348.281 1602.72 325 1574 325C1545.28 325 1522 348.281 1522 377C1522 405.719 1545.28 429 1574 429Z" fill="white"/>
</mask>
<g mask="url(#mask0_7_4)">
<path d="M1560.7 351.874C1560.29 351.874 1559.89 351.927 1559.51 352.017C1561.8 352.554 1563.5 354.6 1563.5 357.049C1563.5 359.497 1561.8 361.544 1559.51 362.081C1559.89 362.171 1560.29 362.223 1560.7 362.223C1563.56 362.223 1565.87 359.907 1565.87 357.049C1565.87 354.191 1563.56 351.874 1560.7 351.874Z" fill="#DDD8CA"/>
<path d="M1563.5 357.048C1563.5 354.6 1561.8 352.554 1559.51 352.016C1557.23 352.553 1555.52 354.599 1555.52 357.048C1555.52 359.497 1557.23 361.543 1559.51 362.081C1561.8 361.544 1563.5 359.497 1563.5 357.048Z" fill="#E5E0CF"/>
<path d="M1560.08 412.567C1559.81 412.567 1559.54 412.602 1559.29 412.662C1560.81 413.021 1561.95 414.388 1561.95 416.023C1561.95 417.659 1560.81 419.026 1559.29 419.385C1559.54 419.445 1559.81 419.48 1560.08 419.48C1561.99 419.48 1563.54 417.932 1563.54 416.023C1563.54 414.115 1561.99 412.567 1560.08 412.567Z" fill="#DDD8CA"/>
<path d="M1561.95 416.024C1561.95 414.388 1560.81 413.021 1559.29 412.663C1557.76 413.021 1556.62 414.388 1556.62 416.024C1556.62 417.66 1557.76 419.027 1559.29 419.385C1560.81 419.027 1561.95 417.66 1561.95 416.024Z" fill="#E5E0CF"/>
<path d="M1551.52 393.067C1550.95 393.067 1550.39 393.141 1549.85 393.267C1553.06 394.021 1555.45 396.892 1555.45 400.329C1555.45 403.765 1553.06 406.638 1549.85 407.391C1550.39 407.517 1550.95 407.591 1551.52 407.591C1555.53 407.591 1558.78 404.34 1558.78 400.329C1558.78 396.318 1555.53 393.067 1551.52 393.067Z" fill="#DDD8CA"/>
<path d="M1555.45 400.329C1555.45 396.892 1553.06 394.021 1549.85 393.267C1546.65 394.02 1544.26 396.892 1544.26 400.329C1544.26 403.765 1546.65 406.637 1549.85 407.391C1553.06 406.637 1555.45 403.765 1555.45 400.329Z" fill="#E5E0CF"/>
<path d="M1541.06 354.385C1540.18 354.385 1539.33 354.497 1538.52 354.688C1543.4 355.837 1547.05 360.214 1547.05 365.451C1547.05 370.688 1543.4 375.065 1538.52 376.213C1539.33 376.405 1540.18 376.517 1541.06 376.517C1547.17 376.517 1552.12 371.563 1552.12 365.451C1552.12 359.339 1547.17 354.385 1541.06 354.385Z" fill="#DDD8CA"/>
<path d="M1547.05 365.451C1547.05 360.214 1543.4 355.837 1538.52 354.688C1533.63 355.837 1529.99 360.214 1529.99 365.451C1529.99 370.688 1533.63 375.065 1538.52 376.213C1543.4 375.065 1547.05 370.688 1547.05 365.451Z" fill="#E5E0CF"/>
<path d="M1593.29 388.628C1592.21 388.628 1591.16 388.767 1590.15 389.004C1596.19 390.425 1600.7 395.838 1600.7 402.314C1600.7 408.791 1596.19 414.203 1590.15 415.624C1591.16 415.861 1592.21 416 1593.29 416C1600.85 416 1606.98 409.873 1606.98 402.314C1606.98 394.755 1600.85 388.628 1593.29 388.628Z" fill="#DDD8CA"/>
<path d="M1600.7 402.314C1600.7 395.837 1596.19 390.424 1590.15 389.004C1584.11 390.425 1579.6 395.838 1579.6 402.314C1579.6 408.791 1584.11 414.203 1590.15 415.624C1596.19 414.203 1600.7 408.791 1600.7 402.314Z" fill="#E5E0CF"/>
<path d="M1598.79 365.925C1598.1 365.925 1597.45 366.012 1596.81 366.161C1600.61 367.055 1603.45 370.463 1603.45 374.539C1603.45 378.616 1600.61 382.023 1596.81 382.917C1597.45 383.067 1598.1 383.154 1598.79 383.154C1603.54 383.154 1607.4 379.297 1607.4 374.539C1607.4 369.781 1603.54 365.925 1598.79 365.925Z" fill="#DDD8CA"/>
<path d="M1603.45 374.539C1603.45 370.462 1600.61 367.055 1596.81 366.161C1593.01 367.055 1590.17 370.462 1590.17 374.539C1590.17 378.616 1593.01 382.022 1596.81 382.917C1600.61 382.023 1603.45 378.616 1603.45 374.539Z" fill="#E5E0CF"/>
<path d="M1614.46 379.909C1614.02 379.909 1613.6 379.965 1613.19 380.061C1615.63 380.633 1617.44 382.816 1617.44 385.427C1617.44 388.038 1615.63 390.22 1613.19 390.793C1613.6 390.888 1614.02 390.944 1614.46 390.944C1617.51 390.944 1619.98 388.474 1619.98 385.427C1619.98 382.379 1617.51 379.909 1614.46 379.909Z" fill="#DDD8CA"/>
<path d="M1617.45 385.426C1617.45 382.815 1615.63 380.633 1613.19 380.06C1610.76 380.633 1608.94 382.815 1608.94 385.426C1608.94 388.038 1610.76 390.22 1613.19 390.792C1615.63 390.22 1617.45 388.038 1617.45 385.426Z" fill="#E5E0CF"/>
<path d="M1612.16 356.844C1611.74 356.844 1611.34 356.897 1610.95 356.989C1613.28 357.537 1615.02 359.626 1615.02 362.125C1615.02 364.624 1613.28 366.713 1610.95 367.262C1611.34 367.353 1611.74 367.407 1612.16 367.407C1615.07 367.407 1617.44 365.042 1617.44 362.125C1617.44 359.208 1615.07 356.844 1612.16 356.844Z" fill="#DDD8CA"/>
<path d="M1615.02 362.125C1615.02 359.626 1613.28 357.537 1610.95 356.989C1608.61 357.537 1606.88 359.626 1606.88 362.125C1606.88 364.624 1608.61 366.713 1610.95 367.262C1613.28 366.713 1615.02 364.624 1615.02 362.125Z" fill="#E5E0CF"/>
<path d="M1555.8 335.146C1555.27 335.146 1554.76 335.214 1554.27 335.329C1557.21 336.02 1559.4 338.652 1559.4 341.801C1559.4 344.951 1557.21 347.583 1554.27 348.274C1554.76 348.389 1555.27 348.457 1555.8 348.457C1559.48 348.457 1562.45 345.477 1562.45 341.801C1562.45 338.126 1559.48 335.146 1555.8 335.146Z" fill="#DDD8CA"/>
<path d="M1559.4 341.801C1559.4 338.652 1557.21 336.02 1554.27 335.329C1551.34 336.02 1549.14 338.652 1549.14 341.801C1549.14 344.951 1551.34 347.583 1554.27 348.274C1557.21 347.583 1559.4 344.951 1559.4 341.801Z" fill="#E5E0CF"/>
</g>
<ellipse cx="1290" cy="488" rx="136" ry="101" fill="url(#paint5_linear_7_4)"/>
<circle cx="1343.5" cy="339.5" r="1.5" fill="#C7C7C7"/>
<circle cx="1410.5" cy="341.5" r="1.5" fill="#C7C7C7"/>
<circle cx="1508.5" cy="419.5" r="1.5" fill="#C7C7C7"/>
<circle cx="1496.5" cy="332.5" r="1.5" fill="#C7C7C7"/>
<circle cx="1483.5" cy="360.5" r="1.5" fill="#C7C7C7"/>
<circle cx="1438.5" cy="386.5" r="1.5" fill="#C7C7C7"/>
<circle cx="1427.5" cy="421.5" r="1.5" fill="#C7C7C7"/>
<circle cx="1351.5" cy="373.5" r="1.5" fill="#C7C7C7"/>
<circle cx="1304.5" cy="354.5" r="1.5" fill="#C7C7C7"/>
</g>
<path d="M1171.66 628.24V556.72H1195.18C1202.28 556.72 1208.46 558.192 1213.71 561.136C1218.95 564.016 1223.02 568.144 1225.9 573.52C1228.78 578.832 1230.22 585.136 1230.22 592.432C1230.22 599.664 1228.78 605.968 1225.9 611.344C1223.02 616.72 1218.95 620.88 1213.71 623.824C1208.46 626.768 1202.28 628.24 1195.18 628.24H1171.66ZM1179.34 621.04H1195.18C1200.68 621.04 1205.45 619.888 1209.48 617.584C1213.51 615.216 1216.62 611.888 1218.79 607.6C1221.03 603.312 1222.15 598.256 1222.15 592.432C1222.15 586.608 1221.03 581.584 1218.79 577.36C1216.55 573.072 1213.42 569.776 1209.39 567.472C1205.35 565.104 1200.62 563.92 1195.18 563.92H1179.34V621.04ZM1265.39 629.392C1262.13 629.392 1259.22 628.784 1256.66 627.568C1254.1 626.288 1252.08 624.56 1250.61 622.384C1249.14 620.208 1248.4 617.712 1248.4 614.896C1248.4 612.208 1248.98 609.776 1250.13 607.6C1251.28 605.36 1253.07 603.472 1255.51 601.936C1257.94 600.4 1261.04 599.312 1264.82 598.672L1284.98 595.312V601.84L1266.55 604.912C1262.83 605.552 1260.15 606.736 1258.48 608.464C1256.88 610.192 1256.08 612.24 1256.08 614.608C1256.08 616.912 1256.98 618.864 1258.77 620.464C1260.63 622.064 1262.99 622.864 1265.87 622.864C1269.39 622.864 1272.47 622.128 1275.09 620.656C1277.71 619.12 1279.76 617.072 1281.23 614.512C1282.71 611.952 1283.44 609.104 1283.44 605.968V592.912C1283.44 589.84 1282.32 587.344 1280.08 585.424C1277.84 583.504 1274.93 582.544 1271.35 582.544C1268.21 582.544 1265.46 583.344 1263.09 584.944C1260.72 586.48 1258.96 588.496 1257.81 590.992L1251.28 587.44C1252.24 585.264 1253.75 583.28 1255.79 581.488C1257.91 579.696 1260.31 578.288 1262.99 577.264C1265.68 576.176 1268.47 575.632 1271.35 575.632C1275.12 575.632 1278.45 576.368 1281.33 577.84C1284.27 579.312 1286.55 581.36 1288.15 583.984C1289.81 586.544 1290.64 589.52 1290.64 592.912V628.24H1283.44V617.968L1284.5 619.024C1283.6 620.944 1282.19 622.704 1280.27 624.304C1278.42 625.84 1276.21 627.088 1273.65 628.048C1271.15 628.944 1268.4 629.392 1265.39 629.392ZM1315.05 628.24V576.784H1322.25V585.232L1321.29 583.984C1322.51 581.552 1324.33 579.632 1326.76 578.224C1329.26 576.816 1332.27 576.112 1335.79 576.112H1339.05V583.312H1334.54C1330.83 583.312 1327.85 584.464 1325.61 586.768C1323.37 589.072 1322.25 592.336 1322.25 596.56V628.24H1315.05ZM1357.09 628.24V555.568H1364.29V606.448L1361.22 605.968L1390.11 576.784H1399.42L1379.26 597.424L1401.25 628.24H1392.61L1371.97 599.728L1376.58 600.112L1361.89 615.28L1364.29 609.328V628.24H1357.09ZM1445.2 628.24V576.784H1452.4V586.576L1451.24 585.136C1452.65 582.128 1454.73 579.792 1457.48 578.128C1460.3 576.464 1463.37 575.632 1466.7 575.632C1470.67 575.632 1474.25 576.752 1477.45 578.992C1480.65 581.232 1482.92 584.144 1484.27 587.728L1482.25 587.824C1483.53 583.856 1485.74 580.848 1488.88 578.8C1492.08 576.688 1495.6 575.632 1499.44 575.632C1502.89 575.632 1506.06 576.464 1508.94 578.128C1511.88 579.792 1514.22 582.096 1515.95 585.04C1517.74 587.92 1518.64 591.184 1518.64 594.832V628.24H1511.44V597.616C1511.44 594.48 1510.86 591.824 1509.71 589.648C1508.62 587.472 1507.12 585.808 1505.2 584.656C1503.28 583.44 1501.07 582.832 1498.57 582.832C1496.14 582.832 1493.93 583.44 1491.95 584.656C1489.96 585.808 1488.4 587.504 1487.24 589.744C1486.09 591.92 1485.52 594.544 1485.52 597.616V628.24H1478.32V597.616C1478.32 594.48 1477.74 591.824 1476.59 589.648C1475.5 587.472 1474 585.808 1472.08 584.656C1470.16 583.44 1467.95 582.832 1465.45 582.832C1462.96 582.832 1460.72 583.44 1458.73 584.656C1456.81 585.808 1455.28 587.504 1454.12 589.744C1452.97 591.92 1452.4 594.544 1452.4 597.616V628.24H1445.2ZM1566.08 629.392C1561.21 629.392 1556.8 628.24 1552.83 625.936C1548.86 623.568 1545.69 620.368 1543.33 616.336C1541.02 612.24 1539.87 607.6 1539.87 602.416C1539.87 597.296 1541.02 592.72 1543.33 588.688C1545.63 584.656 1548.73 581.488 1552.64 579.184C1556.61 576.816 1561.09 575.632 1566.08 575.632C1571.07 575.632 1575.52 576.784 1579.42 579.088C1583.39 581.392 1586.49 584.56 1588.73 588.592C1591.04 592.624 1592.19 597.232 1592.19 602.416C1592.19 607.664 1591.01 612.336 1588.64 616.432C1586.27 620.464 1583.1 623.632 1579.13 625.936C1575.23 628.24 1570.88 629.392 1566.08 629.392ZM1566.08 622.192C1569.53 622.192 1572.64 621.328 1575.39 619.6C1578.21 617.872 1580.41 615.504 1582.01 612.496C1583.68 609.488 1584.51 606.128 1584.51 602.416C1584.51 598.704 1583.68 595.376 1582.01 592.432C1580.41 589.488 1578.21 587.152 1575.39 585.424C1572.64 583.696 1569.53 582.832 1566.08 582.832C1562.62 582.832 1559.49 583.696 1556.67 585.424C1553.92 587.152 1551.71 589.488 1550.05 592.432C1548.38 595.376 1547.55 598.704 1547.55 602.416C1547.55 606.128 1548.38 609.488 1550.05 612.496C1551.71 615.504 1553.92 617.872 1556.67 619.6C1559.49 621.328 1562.62 622.192 1566.08 622.192ZM1637.72 629.392C1632.92 629.392 1628.6 628.24 1624.76 625.936C1620.92 623.568 1617.88 620.368 1615.64 616.336C1613.46 612.24 1612.38 607.632 1612.38 602.512C1612.38 597.328 1613.46 592.72 1615.64 588.688C1617.88 584.656 1620.89 581.488 1624.66 579.184C1628.5 576.816 1632.86 575.632 1637.72 575.632C1642.14 575.632 1646.07 576.592 1649.53 578.512C1652.98 580.432 1655.7 583.024 1657.69 586.288L1656.54 588.304V555.568H1663.74V628.24H1656.54V616.72L1657.69 617.776C1655.9 621.488 1653.21 624.368 1649.62 626.416C1646.1 628.4 1642.14 629.392 1637.72 629.392ZM1638.1 622.192C1641.56 622.192 1644.66 621.328 1647.42 619.6C1650.23 617.872 1652.44 615.536 1654.04 612.592C1655.7 609.584 1656.54 606.224 1656.54 602.512C1656.54 598.8 1655.7 595.472 1654.04 592.528C1652.44 589.52 1650.23 587.152 1647.42 585.424C1644.66 583.696 1641.56 582.832 1638.1 582.832C1634.71 582.832 1631.64 583.696 1628.89 585.424C1626.14 587.152 1623.96 589.488 1622.36 592.432C1620.82 595.376 1620.06 598.736 1620.06 602.512C1620.06 606.224 1620.82 609.584 1622.36 612.592C1623.96 615.536 1626.1 617.872 1628.79 619.6C1631.54 621.328 1634.65 622.192 1638.1 622.192ZM1711.54 629.392C1706.74 629.392 1702.39 628.24 1698.49 625.936C1694.65 623.568 1691.61 620.336 1689.37 616.24C1687.13 612.144 1686.01 607.504 1686.01 602.32C1686.01 597.136 1687.1 592.56 1689.27 588.592C1691.45 584.56 1694.39 581.392 1698.1 579.088C1701.88 576.784 1706.1 575.632 1710.78 575.632C1714.49 575.632 1717.78 576.336 1720.66 577.744C1723.61 579.088 1726.1 580.944 1728.15 583.312C1730.2 585.616 1731.77 588.24 1732.86 591.184C1733.94 594.064 1734.49 597.04 1734.49 600.112C1734.49 600.752 1734.46 601.488 1734.39 602.32C1734.33 603.088 1734.23 603.888 1734.1 604.72H1690.62V598H1729.98L1726.52 600.88C1727.1 597.36 1726.68 594.224 1725.27 591.472C1723.93 588.656 1721.98 586.448 1719.42 584.848C1716.86 583.184 1713.98 582.352 1710.78 582.352C1707.58 582.352 1704.6 583.184 1701.85 584.848C1699.16 586.512 1697.05 588.848 1695.51 591.856C1693.98 594.8 1693.37 598.32 1693.69 602.416C1693.37 606.512 1694.01 610.096 1695.61 613.168C1697.27 616.176 1699.51 618.512 1702.33 620.176C1705.21 621.84 1708.28 622.672 1711.54 622.672C1715.32 622.672 1718.49 621.776 1721.05 619.984C1723.61 618.192 1725.69 615.952 1727.29 613.264L1733.43 616.528C1732.41 618.832 1730.84 620.976 1728.73 622.96C1726.62 624.88 1724.09 626.448 1721.14 627.664C1718.26 628.816 1715.06 629.392 1711.54 629.392Z" fill="#FAFAFA"/>
<g clip-path="url(#clip2_7_4)">
<g filter="url(#filter2_i_7_4)">
<rect x="291" y="312" width="375" height="130" rx="65" fill="url(#paint6_linear_7_4)"/>
</g>
<g opacity="0.75">
<path d="M627.328 360.513C627.054 359.703 626.343 357.991 624.616 356.665C624.4 356.499 621.734 354.509 618.885 355.046C616.699 355.458 615.904 355.687 615.904 355.687C615.012 355.955 614.381 356.188 614.074 355.893C613.77 355.6 614.007 354.994 614.075 354.505C614.312 352.811 612.714 351.26 611.812 350.385C609.171 347.822 605.153 347.91 603.449 347.956C597.927 348.107 594.427 351.201 594.046 351.549C592.437 353.018 592.881 353.673 591.321 354.388C588.925 355.486 586.907 354.383 583.896 355.669C583.224 355.956 581.807 356.681 581.367 357.702C581.04 358.463 581.302 359.084 581.514 359.584C581.709 360.046 581.864 360.411 581.53 360.731C581.124 361.121 580.335 361.106 579.242 361.085C578.612 361.073 577.898 361.059 577.097 361.118C573.864 361.357 572.302 364.823 569.036 364.647C568.447 364.615 567.984 364.467 567.746 364.38C566.597 367.404 566.993 369.232 567.494 370.307C571.23 378.31 595.356 375.537 605.744 374.342C609.79 373.877 611.93 373.412 616.313 373.335C622.343 373.229 624.904 373.118 630.027 372.895C632.975 372.767 634.169 372.686 635.156 371.724C637.433 369.508 637.042 364.146 634.242 361.634C632.693 360.245 630.725 360.012 630.593 359.998C629.083 359.841 627.895 360.266 627.328 360.513Z" fill="#F2F7F8"/>
<path d="M621.674 363.807C623.154 363.703 626.038 363.5 627.133 361.384C628.213 359.297 626.858 356.692 625.661 355.376C623.217 352.69 619.468 353.221 618.905 353.31C616.379 353.707 614.773 355.208 614.205 355.795C614.228 354.796 614.129 353.13 613.309 351.324C611.718 347.82 608.59 346.389 607.623 345.965C603.2 344.024 599.084 345.527 597.885 346.03C596.697 346.529 594.409 347.527 592.853 350.016C591.802 351.698 591.531 353.345 591.451 354.289C590.777 353.931 588.797 352.996 586.367 353.492C583.621 354.052 581.376 356.22 580.463 359.104C579.072 358.798 576.343 358.418 573.328 359.525C572.383 359.872 570.307 360.664 568.762 362.682C567.735 364.024 566.851 366.025 567.38 366.499C567.818 366.891 568.853 365.9 571.065 364.953C572.436 364.367 576.315 362.708 579.939 363.912C581.667 364.486 581.518 365.107 583.183 365.493C586.158 366.183 588.788 364.7 589.435 364.335C592.688 362.501 593.858 359.382 594.161 358.479C594.839 358.946 595.829 359.551 597.102 360.079C601.3 361.821 605.075 361.272 606.251 361.059C609.166 360.532 611.32 359.313 612.59 358.445C612.947 359.248 613.723 360.694 615.27 361.909C617.772 363.878 620.553 363.886 621.674 363.807Z" fill="white"/>
<path d="M592.199 368.643C593.137 369.31 594.241 369.945 595.523 370.45C601.801 372.926 607.905 370.544 609.975 369.623C611.505 370.318 613.774 371.039 616.314 370.538C617.614 370.282 617.796 369.94 619.19 369.688C621.885 369.202 625.893 370.317 625.893 370.317C631.269 371.919 635.353 370.176 635.561 371.07C635.764 371.942 631.972 373.98 628.138 374.782C623.145 375.826 618.673 375.085 615.513 374.157C612.039 376.279 608.939 377.282 606.837 377.792C602.288 378.896 600.552 378.141 599.714 377.596C599.089 377.19 599.171 377.036 598.554 376.688C596.648 375.613 594.575 376.358 591.723 376.999C591.723 376.999 588.887 377.632 585.99 377.923C583.394 378.184 579.195 378.607 574.956 376.611C573.744 376.04 571.923 374.987 570.081 373.015C570.965 371.967 572.484 370.495 574.684 369.951C578.906 368.907 581.787 372.835 586.382 371.585C589.122 370.839 591.087 369.514 592.199 368.643Z" fill="#CEEAF0"/>
</g>
<g opacity="0.5">
<path d="M482.822 332.458C485.482 330.783 488.184 329.261 490.985 327.923C488.871 327.374 487.157 327.466 486.969 327.48C486.57 327.507 481.314 327.95 478.329 331.959C476.973 333.781 476.458 335.836 475.996 337.064C478.386 335.905 480.579 333.871 482.822 332.458Z" fill="#F2F7F8"/>
<path d="M526.071 346.917C524.868 345.964 523.598 345.742 523.059 345.654C519.995 345.153 518.417 347.098 517.174 346.237C516.243 345.593 517 344.437 516.066 342.334C515.964 342.102 514.728 339.427 511.873 338.351C509.507 337.461 507.307 338.149 506.418 338.426C503.06 339.476 502.038 341.749 500.866 341.237C499.828 340.784 500.358 338.913 499.295 335.853C499.077 335.223 498.186 332.811 496.3 330.893C495.151 329.725 493.839 328.951 492.569 328.441C487.57 330.694 482.865 333.552 478.455 336.832C473.576 340.459 467.829 338.371 462.188 338.912C458.299 339.284 454.999 341.298 451.958 343.622C450.557 344.692 449.837 345.801 448.72 347.113C448.439 347.442 447.961 348.104 447.464 348.233C446.34 348.527 444.571 347.659 443.18 346.946C443.501 347.926 444.104 348.43 443.953 348.606C443.783 348.804 442.975 348.219 441.845 347.815C440.485 347.33 439.332 347.356 438.614 347.359C438.064 347.362 435.811 347.42 433.6 348.756C433.552 348.784 433.482 348.827 433.393 348.883C432.95 349.163 429.003 351.758 429.02 355.854C429.03 358.236 430.379 360.494 432.111 361.717C434.1 363.123 435.257 362.218 439.212 363.795C441.562 364.732 441.29 365.105 443.449 365.912C446.626 367.099 449.394 367.106 451.012 367.094C453.044 367.08 455.39 367.065 458.147 366.033C461.206 364.888 463.003 363.155 465.322 363.863C465.932 364.05 465.961 364.237 466.927 364.529C467.434 364.682 469.146 365.162 471.397 364.99C475.138 364.706 476.003 362.957 478.542 362.711C481.476 362.427 482.993 364.869 485.789 366.02C495.645 370.073 509.632 367.817 513.681 361.197C514.467 359.913 514.608 358.907 515.909 357.923C519.062 355.538 522.635 358.07 525.946 355.651C526.264 355.42 528.186 353.969 528.361 351.639C528.563 348.949 526.286 347.086 526.071 346.917Z" fill="#F2F7F8"/>
<path d="M526.145 357.927C523.211 359.371 517.645 357.144 516.381 358.194C516.027 358.488 515.75 358.826 515.75 358.826C515.213 359.524 515.201 360.172 513.704 361.831C511.238 364.563 508.393 365.837 508.278 365.675C508.109 365.439 511.355 363.868 514.108 360.139C515.29 358.537 519.288 353.121 517.439 347.328C516.322 343.828 513.654 342.016 513.156 341.689C508.491 338.629 503.31 340.683 502.949 340.833C500.862 341.702 499.516 343.042 498.815 343.856C498.388 342.727 497.277 340.261 494.7 338.299C492.122 336.337 489.516 335.973 488.1 335.796C483.235 335.186 479.444 337.159 478.353 337.745C475.245 339.417 474.761 340.936 473.163 341.891C472.765 342.128 472.259 342.348 471.64 342.51C471.015 342.674 470.481 342.711 470.128 342.717C468.722 340.135 465.926 339.077 463.881 339.923C461.989 340.705 461.406 342.844 461.328 343.145C460.783 342.799 459.792 342.278 458.481 342.178C456.565 342.032 455.149 342.878 454.314 343.376C450.927 345.399 449.697 349.088 449.349 350.29C448.546 349.817 447.419 349.345 446.307 349.668C444.936 350.067 444.725 351.346 443.692 351.433C442.391 351.543 441.847 349.588 440.217 348.572C439.038 347.836 437.03 347.429 433.393 348.884C434.409 348.283 436.271 347.384 438.614 347.36C439.346 347.353 440.507 347.291 441.845 347.817C442.191 347.953 442.469 348.095 442.661 348.203C442.559 347.825 442.444 347.216 442.527 346.477C442.562 346.17 442.685 345.183 443.378 344.287C444.393 342.975 446.318 342.256 447.738 342.77C448.757 343.139 449.273 344.055 449.5 343.901C449.726 343.747 449.078 342.934 449.149 341.811C449.25 340.205 450.752 339.152 450.961 339.01C451.347 338.748 452.618 337.884 454.078 338.348C455.001 338.642 455.53 339.317 455.733 339.61C455.701 338.99 455.696 337.28 456.806 335.601C457.02 335.277 458.556 333.036 461.437 332.725C463.623 332.489 465.225 333.512 465.667 333.803C466.996 334.68 467.672 335.814 467.963 336.385C468.115 336.06 468.532 335.291 469.41 334.847C470.905 334.09 472.388 334.882 472.558 334.977C473.678 335.603 474.082 336.658 474.185 336.956C474.406 335.652 475.092 332.706 477.531 330.115C480.249 327.228 484.619 325.335 488.97 326.219C492.9 327.016 495.26 329.709 496.299 330.895C498.234 333.102 499.085 335.269 499.295 335.855C499.846 337.387 500.045 338.746 500.119 339.717C501.185 338.9 503.221 337.586 506.076 337.149C507.282 336.965 509.438 336.662 511.898 337.642C514.497 338.677 515.9 340.533 516.511 341.362C517.883 343.226 518.389 345.071 518.595 346.124C519.365 345.808 521.043 345.248 523.059 345.655C525.428 346.134 528.225 347.941 528.863 351.035C529.41 353.687 528.282 356.875 526.145 357.927Z" fill="white"/>
<path d="M523.952 348.652C521.429 347.209 518.601 348.124 517.719 348.409C514.998 349.29 515.119 350.558 513.02 350.858C510.594 351.206 510.045 349.566 507.565 349.882C505.284 350.172 505.137 351.661 502.723 352.004C501.048 352.243 500.8 351.571 497.79 351.038C496.543 350.817 493.798 350.354 490.646 350.943C489.384 351.179 487.488 351.689 485.345 352.924C484.634 354.064 483.044 356.684 479.839 357.875C477.399 358.782 474.572 359.027 472.007 358.857C470.198 358.738 462.544 357.76 461.738 354.818C459.316 356.75 456.799 358.734 453.73 359.41C452.205 359.746 448.945 360.423 445.622 358.731C444.035 357.924 442.974 356.848 442.347 356.093C441.466 356.515 439.855 357.116 437.874 356.907C433.143 356.406 430.838 351.755 430.665 351.39C430.15 352.113 429.189 353.678 429.021 355.854C428.977 356.423 428.744 360.34 431.876 363.029C434.893 365.619 438.566 364.952 439.021 364.861C440.129 365.838 444.729 369.669 451.664 369.624C459.491 369.575 464.387 364.626 465.252 363.719C465.639 364.116 468.272 366.733 472.368 366.509C476.28 366.296 478.566 363.655 478.939 363.209C480.444 364.129 482.757 365.398 485.75 366.462C488.812 367.549 500.154 371.577 510.48 365.96C512.328 364.954 515.168 363.082 517.916 359.64C521.793 360.971 525.608 359.491 526.835 356.878C527.752 354.923 527.157 352.471 526.186 350.884C525.922 350.456 525.257 349.398 523.952 348.652Z" fill="#CEEAF0"/>
<path d="M513.881 359.264C513.755 359.567 513.376 360.359 511.617 361.922C510.282 363.109 508.663 364.548 506.136 365.541C504.844 366.047 499.296 368.225 496.266 365.764C494.824 364.594 494.684 362.969 493.246 362.793C491.951 362.635 491.283 363.882 489.983 363.573C488.927 363.321 488.236 362.229 487.986 361.43C487.311 359.263 489.081 356.68 491.123 355.826C491.49 355.672 492.215 355.344 493.162 355.466C494.313 355.615 495.054 356.319 495.308 356.584C495.322 356.303 495.433 354.676 496.777 353.603C498.618 352.133 500.97 353.14 501.077 353.188C501.852 353.536 502.356 354.05 502.635 354.387C502.879 353.865 503.808 352.04 505.878 351.214C508.442 350.192 511.533 351.192 513.141 353.412C514.395 355.145 514.635 357.466 513.881 359.264Z" fill="white"/>
<path d="M513.69 359.704C513.741 359.751 512.423 361.68 510.515 363.268C505.853 367.152 498.347 368.741 495.824 366.098C495.074 365.311 494.985 364.382 493.844 363.897C492.469 363.314 491.417 364.162 489.982 363.572C489.038 363.183 488.458 362.391 488.108 361.76C488.533 362.024 489.306 362.419 490.33 362.482C492.447 362.611 493.898 361.219 494.158 360.961C495.344 361.944 497.647 363.557 500.94 364.163C502.513 364.453 506.825 364.993 510.485 362.615C512.366 361.393 513.642 359.659 513.69 359.704Z" fill="#CEEAF0"/>
</g>
<path d="M437.058 418.292C439.052 420.909 443.014 421.849 446.736 420.396C447.167 421.197 447.859 422.335 448.907 423.528C454.933 430.394 466.044 431.48 474.284 429C476.362 428.375 479.424 427.172 482.734 424.698C483.92 425.308 485.467 425.962 487.34 426.418C490.23 427.122 492.735 427.072 494.45 426.894C498.399 428.428 501.924 429.207 504.727 429.62C507.75 430.064 521.18 431.736 532.104 424.348C535.81 421.841 536.845 419.904 537.203 418.269C537.956 414.83 536.124 410.866 534.387 409.738C533.789 409.35 532.43 408.512 530.966 406.911C530.735 406.659 530.517 406.355 530.286 405.937C528.144 402.075 532.232 399.025 531.213 394.246C530.012 388.615 522.127 382.911 516.183 383.986C513.195 384.526 512.298 386.493 509.506 386.097C505.963 385.594 505.671 382.179 502.404 381.635C498.536 380.99 493.684 384.899 492.982 388.752C492.611 390.788 493.356 393.052 493.056 393.117C492.829 393.165 492.69 391.854 491.682 390.905C490.368 389.669 487.985 389.438 486.106 390.281C484.281 391.1 482.801 392.993 482.859 394.865C482.928 397.053 485.078 398.565 484.892 398.752C484.699 398.947 482.829 396.918 480.214 395.583C476.492 393.684 472.48 394.812 471.915 394.979C467.357 396.33 464.67 400.397 464.37 400.864C463.397 402.38 463.297 403.225 462.297 403.608C460.613 404.252 459.427 402.417 455.709 401.557C454.146 401.196 452.382 400.787 450.46 401.53C447.722 402.589 446.554 405.173 446.458 405.397C445.577 407.428 446.314 408.534 445.424 409.162C444.235 410 442.7 408.142 439.756 408.649C439.179 408.748 437.836 408.945 436.867 409.889C434.95 411.755 435.183 415.83 437.058 418.292Z" fill="#E9F4F6"/>
<path d="M451.403 412.308C453.295 411.297 456.562 409.55 460.466 408.98C466.996 408.026 468.713 411.329 474.067 410.106C478.656 409.058 478.938 406.279 483.292 404.564C486.508 403.297 491.581 402.754 499.495 406.465C500.463 405.464 502.316 403.84 505.084 403.019C509.837 401.609 515.927 402.972 518.372 406.679C520.902 410.514 517.969 414.487 521.013 417.364C522.92 419.167 525.777 419.217 526.322 419.227C530.312 419.297 532.579 416.528 533.681 417.364C534.609 418.068 534.135 420.89 532.921 423.029C528.414 430.966 512.943 430.85 504.727 429.62C500.206 428.944 496.644 427.744 494.45 426.895C492.735 427.072 490.23 427.123 487.34 426.419C485.467 425.963 483.92 425.31 482.734 424.699C479.423 427.173 476.362 428.376 474.284 429.001C466.044 431.481 454.933 430.395 448.907 423.529C447.859 422.336 447.167 421.197 446.736 420.397C445.544 420.848 443.729 421.303 441.626 420.94C440.628 420.769 437.574 420.243 437.058 418.293C436.786 417.262 437.241 415.903 438.11 415.502C439.095 415.045 440.017 416.096 441.37 416.526C444.286 417.453 446.832 414.751 451.403 412.308Z" fill="#CEEAF0"/>
<path d="M435.299 410.278C435.559 409.922 436.627 408.538 438.571 407.934C440.309 407.394 441.785 407.777 442.819 408.045C443.956 408.34 444.83 408.784 445.395 409.119C445.262 408.143 445.011 405.29 446.81 402.926C449.903 398.863 456.052 400.191 456.655 400.33C459.53 400.997 461.417 402.676 462.279 403.559C462.505 402.692 464.02 397.246 469.377 394.606C470.664 393.972 474.109 392.545 478.188 393.592C480.005 394.059 481.357 394.865 482.19 395.453C482.124 392.596 483.826 390.08 486.295 389.245C489.186 388.268 491.692 390.08 491.92 390.251C491.903 389.949 491.641 383.416 496.991 379.851C501.51 376.84 506.392 378.371 506.86 378.527C510.304 379.673 512.152 382.158 512.739 383.026C513.426 382.756 520.746 380.025 527.392 384.454C532.585 387.917 535.022 394.192 534.175 399.66C533.793 402.126 532.807 404.002 532.087 405.138C532.95 405.527 534.23 406.224 535.488 407.439C536.123 408.052 537.594 409.498 538.38 411.868C538.696 412.821 539.691 415.801 538.207 418.842C536.742 421.842 533.67 423.251 533.492 423.055C533.412 422.967 533.907 422.536 534.454 421.705C534.754 421.251 536.147 419.043 536 416.154C535.82 412.638 533.476 410.387 532.827 409.809C530.92 408.108 528.836 407.633 527.914 407.48C528.183 406.13 528.829 401.978 526.6 397.588C526.31 397.019 523.446 391.598 517.214 389.915C514.512 389.185 512.156 389.422 510.945 389.626C507.042 390.282 505.663 392.393 500.984 393.594C499.086 394.081 497.479 394.214 496.475 394.254C495.88 395.338 494.898 396.873 493.346 398.411C492.345 399.404 491.626 400.126 490.526 400.526C487.687 401.559 485.137 400.048 484.768 399.821C483.662 399.077 480.468 397.14 476.014 397.289C474.002 397.357 470.286 397.898 467.025 400.761C464.202 403.24 463.162 406.192 462.795 407.459C462.278 406.918 459.187 403.786 454.672 404.051C453.764 404.104 451.356 404.282 449.284 406.164C446.582 408.619 446.572 412.049 446.58 412.629C446.136 412.073 445.047 410.871 443.262 410.39C441.082 409.803 438.061 410.383 436.606 412.715C435.575 414.366 435.748 416.975 437.089 418.252C437.201 418.358 437.323 418.455 437.457 418.546C437.315 418.493 437.173 418.419 437.03 418.336C436.409 417.976 434.622 416.94 434.125 414.862C433.588 412.62 434.936 410.775 435.299 410.278Z" fill="white"/>
<path d="M509.477 422.043C505.776 421.919 502.337 419.384 500.605 415.559C497.508 417.991 495.312 418.172 493.901 417.915C490.358 417.269 490.087 413.555 485.461 412.011C481.969 410.845 478.499 411.572 478.499 411.572C475.898 412.117 474.316 413.347 472.554 412.598C471.432 412.12 470.801 411.08 470.455 410.334C471.182 410.24 471.712 410.035 472.04 409.882C473.55 409.175 474.631 407.845 475.326 406.733C476.668 405.464 479.111 403.526 482.674 402.478C488.545 400.75 493.492 402.604 495.037 403.262C496.838 404.029 498.197 404.954 499.096 405.652C499.079 405.046 499.097 404.195 499.255 403.194C499.353 402.579 499.843 399.482 501.719 397.269C504.24 394.293 508.962 393.268 512.828 394.488C517.182 395.862 519.096 399.614 519.725 400.847C522.2 405.699 521.69 411.729 518.708 416.12C517.609 417.738 514.569 422.214 509.477 422.043Z" fill="#E9F4F6"/>
<path d="M515.148 420.143C515.132 420.127 515.116 420.111 515.1 420.095C517.892 417.546 519.997 413.476 519.172 410.935C519.054 410.57 518.674 409.398 517.653 408.912C516.587 408.404 515.858 409.136 514.682 409.14C511.719 409.15 511.132 404.521 507.482 403.769C505.553 403.372 503.918 404.294 503.51 404.524C500.994 405.944 500.376 408.651 500.271 409.146C499.265 408.202 497.548 406.825 495.091 405.862C491.049 404.278 487.382 404.766 485.558 405.138C482.214 405.82 479.45 407.545 478.27 408.36C475.653 410.167 474.139 412.084 472.286 411.658C471.431 411.462 470.832 410.841 470.454 410.333C471.181 410.24 471.711 410.035 472.04 409.881C473.549 409.175 474.63 407.844 475.325 406.732C477.671 403.075 483.033 401.747 483.625 401.6C487.73 400.584 491.312 401.86 493.426 402.612C495.954 403.511 497.853 404.726 499.095 405.652C499.079 405.046 499.096 404.194 499.254 403.194C499.352 402.578 499.845 399.484 501.718 397.268C504.149 394.393 508.821 393.224 512.827 394.487C517.181 395.861 519.095 399.614 519.724 400.847C523.486 408.221 518.904 415.8 518.707 416.119C518.12 417.072 516.988 418.626 515.148 420.143Z" fill="white"/>
<path d="M467.273 419.767C467.292 419.508 467.321 418.648 466.736 417.895C466.015 416.967 464.897 416.895 464.502 416.87C463.232 416.788 462.316 417.436 462.047 417.642C462.058 417.305 462.071 415.845 460.976 414.603C459.986 413.479 458.727 413.257 458.268 413.183C457.954 413.132 455.591 412.787 454.307 414.329C453.576 415.207 453.473 416.365 453.45 416.618C453.41 417.067 453.446 417.444 453.486 417.707C453.397 417.57 452.654 416.472 451.278 416.366C449.957 416.264 449.093 417.158 448.886 417.373C447.649 418.653 447.969 420.435 448.007 420.627C447.085 420.347 446.092 420.632 445.496 421.344C444.822 422.149 444.781 423.352 445.419 424.248C445.601 424.408 445.877 424.638 446.231 424.889C446.425 425.026 448.453 426.434 451.01 426.755C454.796 427.232 455.887 424.841 459.819 425.6C460.849 425.799 460.567 425.923 461.769 426.178C462.53 426.339 467.066 427.301 470.119 424.755C470.762 424.219 471.987 423.172 471.863 421.735C471.774 420.702 470.997 419.595 469.792 419.261C468.476 418.898 467.408 419.666 467.273 419.767Z" fill="white"/>
<path d="M459.717 421.907C461.77 422.401 463.119 423.634 463.755 424.313C463.853 424.133 464.824 422.424 466.644 422.285C467.815 422.196 469.334 422.758 469.514 423.701C469.698 424.664 468.408 425.624 468.133 425.829C466.166 427.293 464.41 426.471 459.577 426.71C456.695 426.852 455.993 427.21 453.643 426.964C450.247 426.608 449.433 425.623 449.139 425.055C449.085 424.953 448.764 424.311 448.907 423.528C449.178 422.052 450.848 421.463 451.028 421.403C451.252 421.327 452.872 420.784 453.895 421.769C454.393 422.247 454.519 422.867 454.558 423.164C454.864 422.824 455.385 422.339 456.153 422.006C457.572 421.391 458.892 421.709 459.717 421.907Z" fill="#E9F4F6"/>
<g filter="url(#filter3_f_7_4)">
<circle cx="356" cy="377" r="52" fill="url(#paint7_linear_7_4)"/>
</g>
<circle cx="356" cy="377" r="52" fill="url(#paint8_linear_7_4)"/>
<circle cx="657.5" cy="441.5" r="1.5" fill="#C7C7C7"/>
</g>
<path d="M196.623 628V556.48H204.303V620.8H235.983V628H196.623ZM256.167 628V576.544H263.367V628H256.167ZM256.167 567.04V556.48H263.367V567.04H256.167ZM312.088 649.12C308.568 649.12 305.304 648.576 302.296 647.488C299.352 646.4 296.792 644.896 294.616 642.976C292.504 641.12 290.872 638.944 289.72 636.448L296.344 632.896C297.368 635.328 299.192 637.44 301.816 639.232C304.44 641.024 307.8 641.92 311.896 641.92C315.032 641.92 317.912 641.312 320.536 640.096C323.16 638.88 325.272 637.088 326.872 634.72C328.472 632.352 329.272 629.44 329.272 625.984V614.56L330.424 615.616C328.632 619.328 325.976 622.208 322.456 624.256C318.936 626.24 315.096 627.232 310.936 627.232C306.136 627.232 301.816 626.08 297.976 623.776C294.136 621.472 291.096 618.368 288.856 614.464C286.68 610.496 285.592 606.112 285.592 601.312C285.592 596.448 286.68 592.064 288.856 588.16C291.096 584.256 294.104 581.152 297.88 578.848C301.72 576.544 306.072 575.392 310.936 575.392C315.096 575.392 318.872 576.352 322.264 578.272C325.72 580.192 328.44 582.784 330.424 586.048L329.272 588.064V576.544H336.472V625.984C336.472 630.4 335.416 634.336 333.304 637.792C331.256 641.312 328.376 644.064 324.664 646.048C321.016 648.096 316.824 649.12 312.088 649.12ZM311.32 620.032C314.648 620.032 317.656 619.2 320.344 617.536C323.032 615.808 325.176 613.536 326.776 610.72C328.44 607.84 329.272 604.704 329.272 601.312C329.272 597.92 328.44 594.816 326.776 592C325.176 589.12 323.032 586.848 320.344 585.184C317.656 583.456 314.648 582.592 311.32 582.592C307.928 582.592 304.856 583.456 302.104 585.184C299.352 586.848 297.176 589.088 295.576 591.904C294.04 594.72 293.272 597.856 293.272 601.312C293.272 604.704 294.04 607.84 295.576 610.72C297.176 613.536 299.32 615.808 302.008 617.536C304.76 619.2 307.864 620.032 311.32 620.032ZM360.867 628V555.328H368.067V586.528L366.435 586.144C367.715 582.816 369.795 580.192 372.675 578.272C375.619 576.352 379.011 575.392 382.851 575.392C386.499 575.392 389.763 576.224 392.643 577.888C395.587 579.552 397.891 581.856 399.555 584.8C401.283 587.68 402.147 590.944 402.147 594.592V628H394.947V597.376C394.947 594.24 394.371 591.584 393.219 589.408C392.067 587.232 390.467 585.568 388.419 584.416C386.435 583.2 384.163 582.592 381.603 582.592C379.043 582.592 376.739 583.2 374.691 584.416C372.643 585.568 371.011 587.264 369.795 589.504C368.643 591.68 368.067 594.304 368.067 597.376V628H360.867ZM445.178 628.576C440.57 628.576 437.018 627.232 434.522 624.544C432.026 621.856 430.778 618.016 430.778 613.024V583.744H421.274V576.544H423.674C425.85 576.544 427.578 575.84 428.858 574.432C430.138 572.96 430.778 571.136 430.778 568.96V564.64H437.978V576.544H449.306V583.744H437.978V613.024C437.978 614.752 438.234 616.288 438.746 617.632C439.258 618.912 440.122 619.936 441.338 620.704C442.618 621.472 444.314 621.856 446.426 621.856C446.938 621.856 447.546 621.824 448.25 621.76C448.954 621.696 449.562 621.632 450.074 621.568V628C449.306 628.192 448.442 628.32 447.482 628.384C446.522 628.512 445.754 628.576 445.178 628.576ZM498.229 628V576.544H505.429V586.336L504.277 584.896C505.685 581.888 507.765 579.552 510.517 577.888C513.333 576.224 516.405 575.392 519.733 575.392C523.701 575.392 527.285 576.512 530.485 578.752C533.685 580.992 535.957 583.904 537.301 587.488L535.285 587.584C536.565 583.616 538.773 580.608 541.909 578.56C545.109 576.448 548.629 575.392 552.469 575.392C555.925 575.392 559.093 576.224 561.973 577.888C564.917 579.552 567.253 581.856 568.981 584.8C570.773 587.68 571.67 590.944 571.67 594.592V628H564.469V597.376C564.469 594.24 563.893 591.584 562.741 589.408C561.653 587.232 560.149 585.568 558.229 584.416C556.309 583.2 554.101 582.592 551.605 582.592C549.173 582.592 546.965 583.2 544.981 584.416C542.997 585.568 541.429 587.264 540.277 589.504C539.125 591.68 538.549 594.304 538.549 597.376V628H531.349V597.376C531.349 594.24 530.773 591.584 529.621 589.408C528.533 587.232 527.029 585.568 525.109 584.416C523.189 583.2 520.981 582.592 518.485 582.592C515.989 582.592 513.749 583.2 511.765 584.416C509.845 585.568 508.309 587.264 507.157 589.504C506.005 591.68 505.429 594.304 505.429 597.376V628H498.229ZM619.113 629.152C614.249 629.152 609.833 628 605.865 625.696C601.897 623.328 598.729 620.128 596.361 616.096C594.057 612 592.905 607.36 592.905 602.176C592.905 597.056 594.057 592.48 596.361 588.448C598.665 584.416 601.769 581.248 605.673 578.944C609.641 576.576 614.121 575.392 619.113 575.392C624.105 575.392 628.553 576.544 632.457 578.848C636.425 581.152 639.529 584.32 641.769 588.352C644.073 592.384 645.225 596.992 645.225 602.176C645.225 607.424 644.041 612.096 641.673 616.192C639.305 620.224 636.137 623.392 632.169 625.696C628.265 628 623.913 629.152 619.113 629.152ZM619.113 621.952C622.569 621.952 625.673 621.088 628.425 619.36C631.241 617.632 633.449 615.264 635.049 612.256C636.713 609.248 637.545 605.888 637.545 602.176C637.545 598.464 636.713 595.136 635.049 592.192C633.449 589.248 631.241 586.912 628.425 585.184C625.673 583.456 622.569 582.592 619.113 582.592C615.657 582.592 612.521 583.456 609.705 585.184C606.953 586.912 604.745 589.248 603.081 592.192C601.417 595.136 600.585 598.464 600.585 602.176C600.585 605.888 601.417 609.248 603.081 612.256C604.745 615.264 606.953 617.632 609.705 619.36C612.521 621.088 615.657 621.952 619.113 621.952ZM690.755 629.152C685.955 629.152 681.635 628 677.795 625.696C673.955 623.328 670.915 620.128 668.675 616.096C666.499 612 665.411 607.392 665.411 602.272C665.411 597.088 666.499 592.48 668.675 588.448C670.915 584.416 673.923 581.248 677.699 578.944C681.539 576.576 685.891 575.392 690.755 575.392C695.171 575.392 699.107 576.352 702.563 578.272C706.019 580.192 708.739 582.784 710.723 586.048L709.571 588.064V555.328H716.771V628H709.571V616.48L710.723 617.536C708.931 621.248 706.243 624.128 702.659 626.176C699.139 628.16 695.171 629.152 690.755 629.152ZM691.139 621.952C694.595 621.952 697.699 621.088 700.451 619.36C703.267 617.632 705.475 615.296 707.075 612.352C708.739 609.344 709.571 605.984 709.571 602.272C709.571 598.56 708.739 595.232 707.075 592.288C705.475 589.28 703.267 586.912 700.451 585.184C697.699 583.456 694.595 582.592 691.139 582.592C687.747 582.592 684.675 583.456 681.923 585.184C679.171 586.912 676.995 589.248 675.395 592.192C673.859 595.136 673.091 598.496 673.091 602.272C673.091 605.984 673.859 609.344 675.395 612.352C676.995 615.296 679.139 617.632 681.827 619.36C684.579 621.088 687.683 621.952 691.139 621.952ZM764.579 629.152C759.779 629.152 755.427 628 751.523 625.696C747.683 623.328 744.643 620.096 742.403 616C740.163 611.904 739.043 607.264 739.043 602.08C739.043 596.896 740.131 592.32 742.307 588.352C744.483 584.32 747.427 581.152 751.139 578.848C754.915 576.544 759.139 575.392 763.811 575.392C767.523 575.392 770.819 576.096 773.699 577.504C776.643 578.848 779.139 580.704 781.187 583.072C783.235 585.376 784.803 588 785.891 590.944C786.979 593.824 787.523 596.8 787.523 599.872C787.523 600.512 787.491 601.248 787.427 602.08C787.363 602.848 787.267 603.648 787.139 604.48H743.651V597.76H783.011L779.555 600.64C780.131 597.12 779.715 593.984 778.307 591.232C776.963 588.416 775.011 586.208 772.451 584.608C769.891 582.944 767.011 582.112 763.811 582.112C760.611 582.112 757.635 582.944 754.883 584.608C752.195 586.272 750.083 588.608 748.547 591.616C747.011 594.56 746.403 598.08 746.723 602.176C746.403 606.272 747.043 609.856 748.643 612.928C750.307 615.936 752.547 618.272 755.363 619.936C758.243 621.6 761.315 622.432 764.579 622.432C768.355 622.432 771.523 621.536 774.083 619.744C776.643 617.952 778.723 615.712 780.323 613.024L786.467 616.288C785.443 618.592 783.875 620.736 781.763 622.72C779.651 624.64 777.123 626.208 774.179 627.424C771.299 628.576 768.099 629.152 764.579 629.152Z" fill="#1B1C1E"/>
</g>
<defs>
<filter id="filter0_i_7_4" x="1262" y="312" width="377" height="134" filterUnits="userSpaceOnUse" color-interpolation-filters="sRGB">
<feFlood flood-opacity="0" result="BackgroundImageFix"/>
<feBlend mode="normal" in="SourceGraphic" in2="BackgroundImageFix" result="shape"/>
<feColorMatrix in="SourceAlpha" type="matrix" values="0 0 0 0 0 0 0 0 0 0 0 0 0 0 0 0 0 0 127 0" result="hardAlpha"/>
<feOffset dx="-2" dy="4"/>
<feGaussianBlur stdDeviation="7"/>
<feComposite in2="hardAlpha" operator="arithmetic" k2="-1" k3="1"/>
<feColorMatrix type="matrix" values="0 0 0 0 0 0 0 0 0 0 0 0 0 0 0 0 0 0 0.3 0"/>
<feBlend mode="normal" in2="shape" result="effect1_innerShadow_7_4"/>
</filter>
<filter id="filter1_f_7_4" x="1508" y="311" width="132" height="132" filterUnits="userSpaceOnUse" color-interpolation-filters="sRGB">
<feFlood flood-opacity="0" result="BackgroundImageFix"/>
<feBlend mode="normal" in="SourceGraphic" in2="BackgroundImageFix" result="shape"/>
<feGaussianBlur stdDeviation="7" result="effect1_foregroundBlur_7_4"/>
</filter>
<filter id="filter2_i_7_4" x="289" y="312" width="377" height="134" filterUnits="userSpaceOnUse" color-interpolation-filters="sRGB">
<feFlood flood-opacity="0" result="BackgroundImageFix"/>
<feBlend mode="normal" in="SourceGraphic" in2="BackgroundImageFix" result="shape"/>
<feColorMatrix in="SourceAlpha" type="matrix" values="0 0 0 0 0 0 0 0 0 0 0 0 0 0 0 0 0 0 127 0" result="hardAlpha"/>
<feOffset dx="-2" dy="4"/>
<feGaussianBlur stdDeviation="7"/>
<feComposite in2="hardAlpha" operator="arithmetic" k2="-1" k3="1"/>
<feColorMatrix type="matrix" values="0 0 0 0 0 0 0 0 0 0 0 0 0 0 0 0 0 0 0.3 0"/>
<feBlend mode="normal" in2="shape" result="effect1_innerShadow_7_4"/>
</filter>
<filter id="filter3_f_7_4" x="290" y="311" width="132" height="132" filterUnits="userSpaceOnUse" color-interpolation-filters="sRGB">
<feFlood flood-opacity="0" result="BackgroundImageFix"/>
<feBlend mode="normal" in="SourceGraphic" in2="BackgroundImageFix" result="shape"/>
<feGaussianBlur stdDeviation="7" result="effect1_foregroundBlur_7_4"/>
</filter>
<linearGradient id="paint0_linear_7_4" x1="0" y1="0" x2="261.981" y2="1300.48" gradientUnits="userSpaceOnUse">
<stop stop-color="#DEFFFA"/>
<stop offset="1" stop-color="#E0CDE0"/>
</linearGradient>
<linearGradient id="paint1_linear_7_4" x1="1440" y1="0" x2="1440" y2="990.968" gradientUnits="userSpaceOnUse">
<stop stop-color="#939393"/>
<stop offset="1" stop-color="#0C202B"/>
</linearGradient>
<linearGradient id="paint2_linear_7_4" x1="1440" y1="0" x2="1440" y2="990.968" gradientUnits="userSpaceOnUse">
<stop stop-color="#011824"/>
<stop offset="1" stop-color="#0C202B"/>
</linearGradient>
<linearGradient id="paint3_linear_7_4" x1="0" y1="0" x2="469.081" y2="1164.27" gradientUnits="userSpaceOnUse">
<stop stop-color="#DEFFFA"/>
<stop offset="1" stop-color="#E0CDE0"/>
</linearGradient>
<linearGradient id="paint4_linear_7_4" x1="1319.64" y1="468.5" x2="1646.11" y2="328.589" gradientUnits="userSpaceOnUse">
<stop stop-color="#041326"/>
<stop offset="1" stop-color="#0E314C"/>
</linearGradient>
<linearGradient id="paint5_linear_7_4" x1="1290" y1="387" x2="1290" y2="589" gradientUnits="userSpaceOnUse">
<stop stop-color="#0C2F45"/>
<stop offset="1" stop-color="#151F25"/>
</linearGradient>
<linearGradient id="paint6_linear_7_4" x1="346.642" y1="468.5" x2="673.11" y2="328.589" gradientUnits="userSpaceOnUse">
<stop stop-color="#77C2D0"/>
<stop offset="1" stop-color="#3D91A7"/>
</linearGradient>
<linearGradient id="paint7_linear_7_4" x1="327.263" y1="335.947" x2="392.947" y2="429" gradientUnits="userSpaceOnUse">
<stop stop-color="#FFF500"/>
<stop offset="1" stop-color="#FFC700"/>
</linearGradient>
<linearGradient id="paint8_linear_7_4" x1="327.263" y1="335.947" x2="392.947" y2="429" gradientUnits="userSpaceOnUse">
<stop stop-color="#FFF500"/>
<stop offset="1" stop-color="#FFC700"/>
</linearGradient>
<clipPath id="clip0_7_4">
<rect width="1920" height="960" fill="white"/>
</clipPath>
<clipPath id="clip1_7_4">
<rect x="1264" y="312" width="375" height="130.24" rx="65.1201" fill="white"/>
</clipPath>
<clipPath id="clip2_7_4">
<rect x="291" y="312" width="375" height="130" rx="65" fill="white"/>
</clipPath>
</defs>
</svg>
