<svg width="100" height="100" viewBox="0 0 100 100" fill="none" xmlns="http://www.w3.org/2000/svg">
<g id="Frame 2">
<rect width="100" height="100" rx="50" fill="url(#paint0_linear_1_1449)"/>
<g id="Group">
<g id="nightteme">
<circle id="Ellipse 3" cx="30" cy="50" r="11" fill="#F4F4F4"/>
<circle id="Ellipse 4" cx="33" cy="46" r="9" fill="#002147"/>
</g>
<g id="day">
<circle id="Ellipse 1" cx="70" cy="50" r="11" fill="#FFD23F"/>
<g id="Group_2">
<path id="Vector" d="M70 30L71.5311 34.6957L76.2268 33.1646L74.6957 37.8603L79.3914 36.3292L77.8603 41.0249L82.556 39.4938L81.0249 44.1895L85.7206 42.6584L84.1895 47.3541L88.8852 45.823L87.3541 50.5187L92.0498 48.9876L90.5187 53.6833L95.2144 52.1522L93.6833 56.8479L98.379 55.3168L96.8479 60.0125L101.544 58.4814L100.013 63.1771L104.708 61.646L103.177 66.3417L107.873 64.8106L106.342 69.5063L111.038 67.9752L109.507 72.6709L114.202 71.1398L112.671 75.8355L117.367 74.3044L115.836 79L70 79V30Z" fill="#FFA500"/>
</g>
</g>
</g>
</g>
<defs>
<linearGradient id="paint0_linear_1_1449" x1="0" y1="0" x2="100" y2="100" gradientUnits="userSpaceOnUse">
<stop stop-color="#232E52"/>
<stop offset="1" stop-color="#07090F"/>
</linearGradient>
</defs>
</svg>